# xmcd CD database file
#
# Track frame offsets:
#	150
#	11127
#	24972
#	37020
#	48575
#	60190
#	72882
#	86132
#	98500
#	110847
#	120237
#	134045
#	146942
#	160230
#	173182
#	185090
#	195145
#	205760
#	216495
#	228875
#	241090
#	253702
#
# Disc length: 3542 seconds
#
# Revision: 1
# Processed by: cddbd v1.5.1PL0 Copyright (c) Steve Scherf et al.
# Submitted via: CDex 1.51
#
DISCID=370dd416
DTITLE=Big Mama Thornton - The chronological Big Mama Thornton
DYEAR=2004
DGENRE=Blues
TTITLE0=All right Baby
TTITLE1=Bad luck got my Man
TTITLE2=Partnership blues
TTITLE3=Mischievous Boogie
TTITLE4=I'm all fed up
TTITLE5=Cotton picking blues
TTITLE6=Every time I think of you
TTITLE7=No jody for me
TTITLE8=Let your tears fall baby
TTITLE9=They call me Big Mama
TTITLE10=Walking Blues
TTITLE11=Hound Dog
TTITLE12=Just can't help myself
TTITLE13=Nightmare
TTITLE14=Rockabye Baby
TTITLE15=Hard times
TTITLE16=I've searched the world over
TTITLE17=I ain't no fool either
TTITLE18=The big change
TTITLE19=I smell a rat
TTITLE20=Yes, Baby
TTITLE21=Willie Mae's blues
EXTD=YEAR: 2004
EXTT0=
EXTT1=
EXTT2=
EXTT3=
EXTT4=
EXTT5=
EXTT6=
EXTT7=
EXTT8=
EXTT9=
EXTT10=
EXTT11=
EXTT12=
EXTT13=
EXTT14=
EXTT15=
EXTT16=
EXTT17=
EXTT18=
EXTT19=
EXTT20=
EXTT21=
PLAYORDER=
